<svg xmlns="http://www.w3.org/2000/svg" viewBox="0 0 24 24">
  <path fill="white" d="M12 2C6.48 2 2 5.58 2 10c0 3.06 1.9 5.74 4.77 7.25-.19.7-.72 2.56-.82 2.95-.13.5.18.49.38.36.16-.11 2.05-1.39 2.88-1.96.58.08 1.18.13 1.79.13 5.52 0 10-3.58 10-8S17.52 2 12 2z"/>
  <path fill="#06C755" d="M9.59 8.5H8.41c-.17 0-.31.14-.31.31v3.38c0 .17.14.31.31.31h1.18c.17 0 .31-.14.31-.31V8.81c0-.17-.14-.31-.31-.31zm5.68 0h-1.18c-.17 0-.31.14-.31.31v2.01l-1.56-2.19a.31.31 0 0 0-.25-.13h-1.18c-.17 0-.31.14-.31.31v3.38c0 .17.14.31.31.31h1.18c.17 0 .31-.14.31-.31V9.98l1.56 2.19c.06.08.15.13.25.13h1.18c.17 0 .31-.14.31-.31V8.81c0-.17-.14-.31-.31-.31zm-8.86 2.88H7.22V8.81c0-.17-.14-.31-.31-.31H5.73c-.17 0-.31.14-.31.31v3.38c0 .17.14.31.31.31h2.68c.17 0 .31-.14.31-.31v-.5c0-.17-.14-.31-.31-.31zm9.9-2.57c0-.17-.14-.31-.31-.31h-2.68c-.17 0-.31.14-.31.31v3.38c0 .17.14.31.31.31H16c.17 0 .31-.14.31-.31v-.5c0-.17-.14-.31-.31-.31h-1.88v-.56H16c.17 0 .31-.14.31-.31v-.5c0-.17-.14-.31-.31-.31h-1.88v-.56H16c.17 0 .31-.14.31-.31v-.5z"/>
</svg>
